<svg width="24" height="30" viewBox="0 0 24 30" fill="none" xmlns="http://www.w3.org/2000/svg">
<path d="M3.98633 30H18.937C19.3564 30 19.7586 29.8025 20.0552 29.4508C20.3517 29.0992 20.5183 28.6223 20.5183 28.125V8.4375C20.5183 8.18886 20.435 7.9504 20.2867 7.77459C20.1385 7.59877 19.9374 7.5 19.7277 7.5H6.325C6.28547 7.5 6.20799 7.5075 6.13367 7.51312L3.98633 7.5C2.65966 7.5 1.58125 6.29812 1.58125 4.72687C1.58125 3.15375 2.62646 1.875 3.95312 1.875H22.1375V23.4375C22.1375 23.955 22.4538 24.375 22.8918 24.375C23.3298 24.375 23.7188 23.955 23.7188 23.4375V0.9375C23.7188 0.42 23.3282 0 22.8918 0H3.98633C2.93987 0.000379672 1.93561 0.489253 1.19078 1.36087C0.445956 2.23248 0.0204551 3.41675 0.006325 4.6575L0 4.64813V25.2731C0.000209612 26.5267 0.420264 27.7288 1.1678 28.6153C1.91534 29.5017 2.92915 29.9998 3.98633 30Z" fill="#34A853"/>
</svg>
