<svg width="16" height="17" viewBox="0 0 16 17" fill="none" xmlns="http://www.w3.org/2000/svg">
<path d="M16 8.34467C16 7.67348 15.9455 7.18368 15.8277 6.67575H8.16327V9.70519H12.6621C12.5714 10.4581 12.0816 11.5918 10.9932 12.3537L10.9779 12.4551L13.4013 14.3325L13.5692 14.3492C15.1111 12.9252 16 10.8299 16 8.34467Z" fill="#4285F4"/>
<path d="M8.16326 16.3265C10.3673 16.3265 12.2176 15.6009 13.5692 14.3492L10.9932 12.3537C10.3038 12.8344 9.37866 13.17 8.16326 13.17C6.00455 13.17 4.17236 11.746 3.51924 9.77779L3.42351 9.78592L0.903681 11.736L0.870728 11.8276C2.21312 14.4943 4.97049 16.3265 8.16326 16.3265Z" fill="#34A853"/>
<path d="M3.51924 9.77778C3.34691 9.26985 3.24717 8.72559 3.24717 8.16326C3.24717 7.60087 3.34691 7.05667 3.51017 6.54874L3.50561 6.44057L0.954205 4.45912L0.870727 4.49883C0.317464 5.60542 0 6.84807 0 8.16326C0 9.47845 0.317464 10.721 0.870727 11.8276L3.51924 9.77778Z" fill="#FBBC05"/>
<path d="M8.16326 3.15644C9.69612 3.15644 10.7301 3.81857 11.3197 4.3719L13.6236 2.12245C12.2086 0.80726 10.3673 0 8.16326 0C4.97049 0 2.21312 1.83219 0.870728 4.49883L3.51017 6.54875C4.17236 4.5805 6.00455 3.15644 8.16326 3.15644Z" fill="#EB4335"/>
</svg>
